<?xml version="1.0" encoding="UTF-8"?>
<svg version="1.1" xmlns="http://www.w3.org/2000/svg" width="1024" height="1024">
<path d="M0 0 C337.92 0 675.84 0 1024 0 C1024 337.92 1024 675.84 1024 1024 C686.08 1024 348.16 1024 0 1024 C0 686.08 0 348.16 0 0 Z " fill="#FDFDFD" transform="translate(0,0)"/>
<path d="M0 0 C1.41261087 0.60842025 2.82538394 1.21646398 4.23828125 1.82421875 C26.65085189 11.57316359 48.11703136 22.74184599 68 37 C69.10722412 37.79301514 69.10722412 37.79301514 70.23681641 38.60205078 C79.51788708 45.30399614 88.41727915 52.42369463 97 60 C97.74338623 60.65581055 98.48677246 61.31162109 99.25268555 61.98730469 C112.40274601 73.69849567 125.25256489 86.02009877 136 100 C136.8840118 101.06453988 137.77234427 102.12550083 138.6640625 103.18359375 C162.61446623 131.84772627 180.50320544 165.93187044 193 201 C193.24588867 201.68787598 193.49177734 202.37575195 193.74511719 203.08447266 C195.2582776 207.36168714 196.65647214 211.66677874 198 216 C198.30284912 216.96510498 198.30284912 216.96510498 198.61181641 217.94970703 C218.71974377 282.88122928 217.5726289 363.83295412 190.46484375 426.53515625 C189.3477209 429.17752416 188.28450653 431.82010026 187.25390625 434.49609375 C179.94802326 453.4042224 170.93085404 470.9364661 160 488 C159.34644531 489.02996094 158.69289063 490.05992187 158.01953125 491.12109375 C149.96854265 503.49798667 141.32265465 515.95242886 131.16015625 526.69921875 C129.35347788 528.6235109 127.6354265 530.58325274 125.91796875 532.5859375 C121.70112511 537.42196324 117.21297899 541.97310102 112.67675781 546.50854492 C111.26080053 547.92668284 109.85301711 549.35296665 108.4453125 550.77929688 C103.13004287 556.10567083 97.68379102 561.06640627 91.79931641 565.75610352 C88.85845767 568.11345853 85.99939223 570.55306341 83.1328125 573 C77.00030611 578.11470401 70.54222209 582.61708082 63.875 587 C63.28939301 587.38774597 62.70378601 587.77549194 62.10043335 588.17498779 C52.33799796 594.63160655 42.42042071 600.65919235 32 606 C31.29278809 606.36270996 30.58557617 606.72541992 29.85693359 607.09912109 C26.42705838 608.8478219 22.98563167 610.56991944 19.52734375 612.26171875 C17.46408634 613.27849566 15.40957223 614.31413221 13.37890625 615.39453125 C6.23863804 619.18742246 -1.30482065 621.68397902 -8.93847656 624.2800293 C-10.98189529 624.99367707 -13.00223604 625.75324036 -15.0234375 626.52734375 C-18.9658389 628.01817592 -22.95327073 629.26330709 -27 630.4375 C-27.72622559 630.64995361 -28.45245117 630.86240723 -29.20068359 631.08129883 C-35.56624151 632.92055865 -41.97502862 634.54549662 -48.4140625 636.10546875 C-50.72303564 636.68145442 -53.01893956 637.31426368 -55.29296875 638.015625 C-60.052013 639.27935435 -64.81138007 639.92027933 -69.6875 640.5625 C-71.54582954 640.81189729 -73.40391397 641.06312951 -75.26171875 641.31640625 C-76.48314575 641.47798218 -76.48314575 641.47798218 -77.72924805 641.64282227 C-79.96621439 641.95781877 -79.96621439 641.95781877 -81.984375 642.50927734 C-117.24496968 651.09379712 -159.99597573 645.22393405 -195 638 C-196.05541992 637.78359863 -197.11083984 637.56719727 -198.19824219 637.34423828 C-227.65463545 631.15385825 -256.22635556 620.72268006 -282.62695312 606.29394531 C-284.95760419 605.02311706 -287.29803544 603.77209129 -289.640625 602.5234375 C-299.23258831 597.36200379 -308.26082504 591.6753443 -317.11816406 585.33935547 C-318.93948845 584.04306777 -320.77519158 582.77059248 -322.6171875 581.50390625 C-331.22896881 575.53924743 -339.18058174 568.96329247 -347 562 C-348.12619751 561.00516602 -348.12619751 561.00516602 -349.27514648 559.99023438 C-355.56662341 554.39122143 -361.6056514 548.57747178 -367.5625 542.625 C-368.44357422 541.75617187 -369.32464844 540.88734375 -370.23242188 539.9921875 C-376.26102743 533.97692941 -381.70758751 527.66694025 -387 521 C-388.07220078 519.68715142 -389.14618416 518.37575485 -390.22265625 517.06640625 C-396.26464177 509.64076781 -401.8927635 502.10771115 -407 494 C-407.47550293 493.25508301 -407.95100586 492.51016602 -408.44091797 491.74267578 C-414.56618798 482.13341101 -420.47206585 472.44550515 -425.8125 462.375 C-426.23901855 461.57570068 -426.66553711 460.77640137 -427.10498047 459.95288086 C-427.48928223 459.21303955 -427.87358398 458.47319824 -428.26953125 457.7109375 C-428.60573486 457.06431152 -428.94193848 456.41768555 -429.28833008 455.75146484 C-430 454 -430 454 -430 451 C-398.05585282 435.60433419 -364.08319408 425.88854807 -329 421 C-327.45119141 420.7836792 -327.45119141 420.7836792 -325.87109375 420.56298828 C-322.6868818 420.12882196 -319.50081138 419.71540079 -316.3125 419.3125 C-314.92671753 419.13315918 -314.92671753 419.13315918 -313.51293945 418.95019531 C-275.59950614 414.44795472 -236.75976929 416.18324401 -199 421 C-198.23107422 421.09665955 -197.46214844 421.19331909 -196.66992188 421.29290771 C-172.87724527 424.29028635 -149.4070681 428.47445165 -125.95703125 433.50390625 C-74.95696075 444.41192886 -19.87948791 452.50090031 32.05761719 443.50927734 C35.46226659 442.91998937 38.87462609 442.392833 42.2890625 441.86328125 C55.8149009 439.70733882 68.90314221 436.98478865 82 433 C83.95669321 432.4936196 85.91484434 431.9928075 87.875 431.5 C93.82267703 429.87136227 99.36449748 427.48168918 105 425 C106.36432334 424.41605885 107.72892317 423.8327634 109.09375 423.25 C124.77041962 416.49266488 140.12062127 409.00973686 154 399 C154.95777344 398.31550781 155.91554688 397.63101562 156.90234375 396.92578125 C175.1853501 383.5438699 191.97326887 368.06007151 203 348 C202.319375 348.78761719 201.63875 349.57523438 200.9375 350.38671875 C176.6003831 377.96422466 144.01691794 394.31744357 110 407 C108.76999268 407.46575439 108.76999268 407.46575439 107.51513672 407.94091797 C82.74560346 417.2840427 56.23873847 422.02957678 30 425 C28.98237076 425.12226959 28.98237076 425.12226959 27.94418335 425.24700928 C14.41310599 426.85718037 1.05695984 427.32650031 -12.5625 427.25 C-13.56912689 427.24656586 -14.57575378 427.24313171 -15.61288452 427.23959351 C-52.05976473 427.09430063 -86.88831624 422.60562937 -122.25976562 413.91162109 C-158.12794245 405.16933831 -194.23126662 398.5327801 -230.89971924 394.24859619 C-232.87784634 394.01445851 -234.85474618 393.77001809 -236.83154297 393.52490234 C-302.11802315 385.56355722 -372.33674632 389.86541971 -434.1706543 413.15527344 C-435.15461182 413.52555664 -436.13856934 413.89583984 -437.15234375 414.27734375 C-438.01851318 414.60984131 -438.88468262 414.94233887 -439.77709961 415.28491211 C-442 416 -442 416 -445 416 C-466.97145468 353.40781399 -470.46373659 277.51183701 -448.171875 214.3515625 C-447.06767163 211.19354085 -446.11495379 208.02604602 -445.1875 204.8125 C-437.98466752 181.34612909 -426.96288653 158.79024747 -414 138 C-413.63729004 137.40993164 -413.27458008 136.81986328 -412.90087891 136.21191406 C-403.2254557 120.50316392 -392.3116551 105.73550995 -380 92 C-379.154375 91.04351562 -378.30875 90.08703125 -377.4375 89.1015625 C-365.86124151 76.21944558 -353.76064615 63.55721608 -340 53 C-338.98550781 52.18015625 -337.97101563 51.3603125 -336.92578125 50.515625 C-298.04129773 19.10848364 -253.43339305 -2.74981166 -205 -15 C-203.51765869 -15.38019287 -203.51765869 -15.38019287 -202.00537109 -15.76806641 C-193.52188694 -17.84410926 -184.99792761 -19.14360698 -176.35253906 -20.30761719 C-174.00216489 -20.62470793 -171.65342664 -20.95228945 -169.3046875 -21.28125 C-113.89109443 -28.94572752 -51.4668996 -22.86747356 0 0 Z " fill="#0F385B" transform="translate(638,191)"/>
<path d="M0 0 C0.33 0 0.66 0 1 0 C0.0795808 30.46587542 -6.42301031 62.51891595 -18.53515625 90.53515625 C-19.6522791 93.17752416 -20.71549347 95.82010026 -21.74609375 98.49609375 C-29.05197674 117.4042224 -38.06914596 134.9364661 -49 152 C-49.65355469 153.02996094 -50.30710937 154.05992187 -50.98046875 155.12109375 C-59.03145735 167.49798667 -67.67734535 179.95242886 -77.83984375 190.69921875 C-79.64652212 192.6235109 -81.3645735 194.58325274 -83.08203125 196.5859375 C-87.29887489 201.42196324 -91.78702101 205.97310102 -96.32324219 210.50854492 C-97.73919947 211.92668284 -99.14698289 213.35296665 -100.5546875 214.77929688 C-105.86995713 220.10567083 -111.31620898 225.06640627 -117.20068359 229.75610352 C-120.14154233 232.11345853 -123.00060777 234.55306341 -125.8671875 237 C-131.99969389 242.11470401 -138.45777791 246.61708082 -145.125 251 C-145.71060699 251.38774597 -146.29621399 251.77549194 -146.89956665 252.17498779 C-156.66200204 258.63160655 -166.57957929 264.65919235 -177 270 C-177.70721191 270.36270996 -178.41442383 270.72541992 -179.14306641 271.09912109 C-182.57294162 272.8478219 -186.01436833 274.56991944 -189.47265625 276.26171875 C-191.53591366 277.27849566 -193.59042777 278.31413221 -195.62109375 279.39453125 C-202.76136196 283.18742246 -210.30482065 285.68397902 -217.93847656 288.2800293 C-219.98189529 288.99367707 -222.00223604 289.75324036 -224.0234375 290.52734375 C-227.9658389 292.01817592 -231.95327073 293.26330709 -236 294.4375 C-236.72622559 294.64995361 -237.45245117 294.86240723 -238.20068359 295.08129883 C-244.56624151 296.92055865 -250.97502862 298.54549662 -257.4140625 300.10546875 C-259.72303564 300.68145442 -262.01893956 301.31426368 -264.29296875 302.015625 C-269.052013 303.27935435 -273.81138007 303.92027933 -278.6875 304.5625 C-280.54582954 304.81189729 -282.40391397 305.06312951 -284.26171875 305.31640625 C-285.48314575 305.47798218 -285.48314575 305.47798218 -286.72924805 305.64282227 C-288.96621439 305.95781877 -288.96621439 305.95781877 -290.984375 306.50927734 C-326.24496968 315.09379712 -368.99597573 309.22393405 -404 302 C-405.05541992 301.78359863 -406.11083984 301.56719727 -407.19824219 301.34423828 C-436.65463545 295.15385825 -465.22635556 284.72268006 -491.62695312 270.29394531 C-493.95760419 269.02311706 -496.29803544 267.77209129 -498.640625 266.5234375 C-508.23258831 261.36200379 -517.26082504 255.6753443 -526.11816406 249.33935547 C-527.93948845 248.04306777 -529.77519158 246.77059248 -531.6171875 245.50390625 C-540.22896881 239.53924743 -548.18058174 232.96329247 -556 226 C-556.75079834 225.33677734 -557.50159668 224.67355469 -558.27514648 223.99023438 C-564.56662341 218.39122143 -570.6056514 212.57747178 -576.5625 206.625 C-577.44357422 205.75617188 -578.32464844 204.88734375 -579.23242188 203.9921875 C-585.26102743 197.97692941 -590.70758751 191.66694025 -596 185 C-597.07220078 183.68715142 -598.14618416 182.37575485 -599.22265625 181.06640625 C-605.26464177 173.64076781 -610.8927635 166.10771115 -616 158 C-616.47550293 157.25508301 -616.95100586 156.51016602 -617.44091797 155.74267578 C-623.56618798 146.13341101 -629.47206585 136.44550515 -634.8125 126.375 C-635.23901855 125.57570068 -635.66553711 124.77640137 -636.10498047 123.95288086 C-636.68143311 122.8431189 -636.68143311 122.8431189 -637.26953125 121.7109375 C-637.60573486 121.06431152 -637.94193848 120.41768555 -638.28833008 119.75146484 C-639 118 -639 118 -639 115 C-607.05585282 99.60433419 -573.08319408 89.88854807 -538 85 C-536.45119141 84.7836792 -536.45119141 84.7836792 -534.87109375 84.56298828 C-531.6868818 84.12882196 -528.50081138 83.71540079 -525.3125 83.3125 C-524.38864502 83.19293945 -523.46479004 83.07337891 -522.51293945 82.95019531 C-484.59950614 78.44795472 -445.75976929 80.18324401 -408 85 C-407.23107422 85.09665955 -406.46214844 85.19331909 -405.66992188 85.29290771 C-381.87724527 88.29028635 -358.4070681 92.47445165 -334.95703125 97.50390625 C-283.95696075 108.41192886 -228.87948791 116.50090031 -176.94238281 107.50927734 C-173.53773341 106.91998937 -170.12537391 106.392833 -166.7109375 105.86328125 C-153.1850991 103.70733882 -140.09685779 100.98478865 -127 97 C-125.04330679 96.4936196 -123.08515566 95.9928075 -121.125 95.5 C-115.17732297 93.87136227 -109.63550252 91.48168918 -104 89 C-102.63567666 88.41605885 -101.27107683 87.8327634 -99.90625 87.25 C-84.22958038 80.49266488 -68.87937873 73.00973686 -55 63 C-53.56333984 61.97326172 -53.56333984 61.97326172 -52.09765625 60.92578125 C-35.76349045 48.97028801 -9.67698096 29.71234423 -5 9 C-3.5625 6.25 -3.5625 6.25 -2 4 C-1.34 4 -0.68 4 0 4 C0 2.68 0 1.36 0 0 Z " fill="#065890" transform="translate(847,527)"/>
<path d="M0 0 C1.16665084 3.49995251 0.57904174 4.67443696 -0.921875 7.921875 C-2.6090782 11.1740203 -4.49177777 14.29230419 -6.4140625 17.41015625 C-7.41630101 19.04681667 -8.39387551 20.69907145 -9.3359375 22.37109375 C-16.67606244 35.29056222 -26.7462823 46.343134 -37 57 C-37.55059082 57.57782227 -38.10118164 58.15564453 -38.66845703 58.75097656 C-46.35085236 66.78207325 -54.30637604 74.03874454 -63.22460938 80.67333984 C-65.01342885 82.0100347 -66.78064432 83.37192442 -68.546875 84.73828125 C-78.17972942 92.10197646 -88.38816819 98.16121173 -99 104 C-100.21768066 104.680625 -100.21768066 104.680625 -101.45996094 105.375 C-142.4217894 128.18016191 -187.69578384 140.47326359 -233.77294922 147.57910156 C-236.02832918 147.9002755 -236.02832918 147.9002755 -238 149 C-240.30924693 149.34286332 -242.62619917 149.63422064 -244.9453125 149.90234375 C-245.6542717 149.98438049 -246.3632309 150.06641724 -247.09367371 150.15093994 C-249.4368298 150.41899737 -251.78073447 150.67933192 -254.125 150.9375 C-254.93109711 151.02681793 -255.73719421 151.11613586 -256.56771851 151.2081604 C-278.00259336 153.56294037 -299.44418932 154.854775 -321 155.5 C-385.02771279 157.23088584 -385.02771279 157.23088584 -448 168 C-449.12889648 168.28166016 -450.25779297 168.56332031 -451.42089844 168.85351562 C-466.49279669 172.58359422 -466.49279669 172.58359422 -481 178 C-482.96683054 178.60422228 -484.94579917 179.17113312 -486.9375 179.6875 C-487.89527344 179.93886719 -488.85304688 180.19023438 -489.83984375 180.44921875 C-490.90912109 180.72185547 -490.90912109 180.72185547 -492 181 C-489.58657264 178.30540635 -487.01578756 176.75345211 -483.84375 175.0390625 C-482.82023438 174.48476563 -481.79671875 173.93046875 -480.7421875 173.359375 C-479.67226563 172.78703125 -478.60234375 172.2146875 -477.5 171.625 C-476.46101562 171.06039062 -475.42203125 170.49578125 -474.3515625 169.9140625 C-463.19768023 163.90598627 -451.85241571 159.04800807 -439.96386719 154.71875 C-438.17236768 154.06308434 -436.38662635 153.39173959 -434.6015625 152.71875 C-425.12286922 149.2064551 -415.470672 146.45694555 -405.73242188 143.76611328 C-403.1210014 143.03392623 -400.52120811 142.26994486 -397.921875 141.49609375 C-363.39227242 131.38069517 -326.8092224 127.40244321 -291 125 C-297.11422268 123.01352259 -303.18924258 122.18799573 -309.5625 121.4375 C-310.53896484 121.31181641 -311.51542969 121.18613281 -312.52148438 121.05664062 C-330.15087516 118.94022728 -347.96328534 118.83190168 -365.6965332 118.86962891 C-368.69682823 118.87501675 -371.69697489 118.86962384 -374.69726562 118.86328125 C-392.56094667 118.85450689 -410.08378959 119.52066038 -427.75 122.25 C-428.47945831 122.36048676 -429.20891663 122.47097351 -429.96047974 122.58480835 C-452.19651281 125.96365214 -473.54365125 131.22590972 -495 138 C-496.00498535 138.31694824 -497.0099707 138.63389648 -498.04541016 138.96044922 C-523.77702482 147.29239204 -547.81476003 159.83020507 -570.3828125 174.58203125 C-571.0212207 174.9992041 -571.65962891 175.41637695 -572.31738281 175.84619141 C-574.14261352 177.05727275 -574.14261352 177.05727275 -576.2421875 178.88671875 C-578 180 -578 180 -580.03515625 179.90625 C-600.72326876 170.36421799 -618.29283635 129.63638215 -628.6875 110.5 C-629.02668457 109.88318359 -629.36586914 109.26636719 -629.71533203 108.63085938 C-631.1969973 105.85754632 -632 104.19796287 -632 101 C-600.05585282 85.60433419 -566.08319408 75.88854807 -531 71 C-529.45119141 70.7836792 -529.45119141 70.7836792 -527.87109375 70.56298828 C-524.6868818 70.12882196 -521.50081138 69.71540079 -518.3125 69.3125 C-517.38864502 69.19293945 -516.46479004 69.07337891 -515.51293945 68.95019531 C-477.59950614 64.44795472 -438.75976929 66.18324401 -401 71 C-400.23107422 71.09665955 -399.46214844 71.19331909 -398.66992188 71.29290771 C-374.87724527 74.29028635 -351.4070681 78.47445165 -327.95703125 83.50390625 C-276.95696075 94.41192886 -221.87948791 102.50090031 -169.94238281 93.50927734 C-166.53773341 92.91998937 -163.12537391 92.392833 -159.7109375 91.86328125 C-146.1850991 89.70733882 -133.09685779 86.98478865 -120 83 C-118.04330679 82.4936196 -116.08515566 81.9928075 -114.125 81.5 C-108.17732297 79.87136227 -102.63550252 77.48168918 -97 75 C-95.63567666 74.41605885 -94.27107683 73.8327634 -92.90625 73.25 C-77.22958038 66.49266488 -61.87937873 59.00973686 -48 49 C-46.56333984 47.97326172 -46.56333984 47.97326172 -45.09765625 46.92578125 C-27.51601243 34.05721935 -10.94733243 19.10486079 0 0 Z " fill="#0296CA" transform="translate(840,541)"/>
<path d="M0 0 C19.14 0 38.28 0 58 0 C61.37645961 9.0038923 61.37645961 9.0038923 62.54638672 12.66162109 C62.81031219 13.48383148 63.07423767 14.30604187 63.34616089 15.15316772 C63.62122467 16.01785675 63.89628845 16.88254578 64.1796875 17.7734375 C64.62164963 19.15736191 64.62164963 19.15736191 65.07254028 20.56924438 C65.69378407 22.51701803 66.31395398 24.46513448 66.93310547 26.41357422 C67.86163382 29.33297518 68.79583742 32.25051682 69.73046875 35.16796875 C72.82245825 44.86169024 75.81718842 54.55862755 78.40914917 64.39974976 C79.31655714 67.79677592 80.24831075 70.9372669 82 74 C82.25168945 73.12899658 82.50337891 72.25799316 82.76269531 71.3605957 C83.71607716 68.06330141 84.67046481 64.76630145 85.62548828 61.46948242 C86.03505801 60.05488175 86.44425084 58.64017189 86.85302734 57.2253418 C90.74593881 43.75318996 94.8562155 30.35821156 99.125 17 C99.64513672 15.36224609 99.64513672 15.36224609 100.17578125 13.69140625 C100.51222656 12.63824219 100.84867187 11.58507812 101.1953125 10.5 C101.64414795 9.09234375 101.64414795 9.09234375 102.10205078 7.65625 C102.97593678 5.07118213 103.98655571 2.53361073 105 0 C123.81 0 142.62 0 162 0 C162 39.93 162 79.86 162 121 C149.46 121 136.92 121 124 121 C123.67 93.61 123.34 66.22 123 38 C110.64444831 74.90347672 110.64444831 74.90347672 98.9296875 112.01196289 C97.99351564 115.02084087 96.99648203 118.0105539 96 121 C85.44 121 74.88 121 64 121 C60.56413502 110.89855696 57.17352644 100.85726835 54.375 90.5625 C50.96673455 78.12214514 46.63076234 65.97769983 42.40576172 53.79711914 C42.12391525 52.98360992 41.84206879 52.17010071 41.55168152 51.3319397 C41.01702425 49.79082257 40.48058583 48.25032185 39.9420929 46.71054077 C38.82091887 43.48494916 37.82923004 40.31692017 37 37 C36.67 64.72 36.34 92.44 36 121 C24.12 121 12.24 121 0 121 C0 81.07 0 41.14 0 0 Z " fill="#F9FAFA" transform="translate(260,378)"/>
<path d="M0 0 C19.14 0 38.28 0 58 0 C68.76073462 33.14306262 68.76073462 33.14306262 72.33886719 45.69433594 C73.48869643 49.70430171 74.66323941 53.7070676 75.83325195 57.71118164 C77.22475264 62.4733681 78.61233196 67.23669562 80 72 C81.98772684 68.40297127 83.15603937 64.60138638 84.35546875 60.69140625 C84.57801834 59.97649017 84.80056793 59.2615741 85.02986145 58.5249939 C85.50559052 56.99625073 85.97988839 55.46706157 86.45288086 53.93746948 C87.68363222 49.95854114 88.92527071 45.98302333 90.16796875 42.0078125 C90.41247772 41.2252861 90.65698669 40.4427597 90.90890503 39.63652039 C93.11840212 32.58428423 95.42472202 25.56687861 97.80541992 18.57055664 C99.43570207 13.76698103 100.93464974 8.93971726 102.3515625 4.06860352 C103 2 103 2 104 0 C122.81 0 141.62 0 161 0 C161 39.6 161 79.2 161 120 C148.79 120 136.58 120 124 120 C123.67 91.29 123.34 62.58 123 33 C119.4525 43.951875 115.905 54.90375 112.25 66.1875 C110.58179199 71.33508911 110.58179199 71.33508911 108.87988281 76.58666992 C107.86593335 79.71856458 107.86593335 79.71856458 106.85223389 82.85054016 C106.40775671 84.22341461 105.9629146 85.59617095 105.51776123 86.96882629 C102.91148463 95.00641645 100.34325047 103.05268527 97.88739014 111.13789368 C96.96731904 114.10540616 95.98247957 117.05256128 95 120 C84.44 120 73.88 120 63 120 C59.46135233 109.5228275 55.95449832 99.07951305 52.91308594 88.44848633 C51.28639525 82.8266801 49.4446475 77.29088721 47.5625 71.75 C44.27444753 62.04993139 41.39817015 52.2590424 38.66674805 42.38916016 C37.79220134 39.25539448 36.8938076 36.12832659 36 33 C35.67 61.71 35.34 90.42 35 120 C23.45 120 11.9 120 0 120 C0 80.4 0 40.8 0 0 Z " fill="#FCFCFC" transform="translate(570,379)"/>
<path d="M0 0 C12.375 -0.0825 24.75 -0.165 37.5 -0.25 C41.37427734 -0.28641602 45.24855469 -0.32283203 49.24023438 -0.36035156 C54.05566406 -0.37841797 54.05566406 -0.37841797 56.32629395 -0.3817749 C57.87647121 -0.38782539 59.42663245 -0.40169682 60.97668457 -0.42230225 C75.09998727 -0.60028494 88.71752777 0.97005607 101.4375 7.6875 C102.0979834 8.0292627 102.7584668 8.37102539 103.43896484 8.72314453 C116.07752073 15.57821773 123.74741116 27.47894832 128 41 C129.30525804 46.7019167 129.18375598 52.43179095 129.1875 58.25 C129.19974609 59.23613281 129.21199219 60.22226562 129.22460938 61.23828125 C129.25705693 77.65674618 124.63033193 92.09509025 113 104 C97.5865524 118.37571053 75.85136496 120.33393431 55.859375 120.1953125 C54.42203935 120.19236339 52.98470152 120.19032831 51.54736328 120.18920898 C46.28154227 120.1788222 41.01576756 120.15090022 35.75 120.125 C18.05375 120.063125 18.05375 120.063125 0 120 C0 80.4 0 40.8 0 0 Z " fill="#FAFBFC" transform="translate(432,379)"/>
<path d="M0 0 C32.60353535 0 32.60353535 0 41 7 C48.18286074 14.58102375 49.33644727 22.30155744 49.25 32.4375 C49.26160156 33.79198242 49.26160156 33.79198242 49.2734375 35.17382812 C49.24247565 45.86340635 46.86726108 54.13273892 39.1875 61.8125 C27.25815796 69.99930336 14.46199898 68 0 68 C0 45.56 0 23.12 0 0 Z " fill="#10395C" transform="translate(472,405)"/>
<path d="M0 0 C4.11830416 2.50976985 7.81583339 5.63166679 10 10 C10.52839495 16.21880209 10.72493456 21.73371321 7 27 C1.87817449 31.85225575 -2.82972919 33.48981156 -9.7890625 33.31640625 C-14.49733613 32.64260737 -17.24151357 29.84048497 -20.3125 26.4375 C-23.75863163 21.45975431 -23.99702631 15.85453852 -23 10 C-17.53751462 0.89097612 -10.34389742 -1.81555705 0 0 Z " fill="#0095CA" transform="translate(769,468)"/>
<path d="M0 0 C0.33 0 0.66 0 1 0 C1 29.37 1 58.74 1 89 C0.67 89 0.34 89 0 89 C0 63.92 0 38.84 0 13 C-0.99 13.33 -1.98 13.66 -3 14 C-2.58846263 9.02906176 -2.20399168 4.55491614 0 0 Z " fill="#214564" transform="translate(693,410)"/>
<path d="M0 0 C0.99 0.495 0.99 0.495 2 1 C2.703125 3.1796875 2.703125 3.1796875 3.25 5.875 C3.44078125 6.75929688 3.6315625 7.64359375 3.828125 8.5546875 C4 11 4 11 2 14 C1.66912177 17.29781034 1.66912177 17.29781034 1.68115234 21.13354492 C1.67110672 21.85574722 1.6610611 22.57794952 1.65071106 23.32203674 C1.61983061 25.70817268 1.60283066 28.09419617 1.5859375 30.48046875 C1.56722974 32.13528921 1.54765662 33.7901001 1.5272522 35.44490051 C1.47588351 39.79973713 1.43628322 44.15460469 1.39910889 48.50958252 C1.35909888 52.95373214 1.30799286 57.39775251 1.2578125 61.84179688 C1.16099714 70.56110969 1.0766104 79.28048637 1 88 C0.67 88 0.34 88 0 88 C0 58.96 0 29.92 0 0 Z " fill="#284E6B" transform="translate(605,411)"/>
<path d="M0 0 C0.33 0 0.66 0 1 0 C0.67 5.28 0.34 10.56 0 16 C-0.33 16 -0.66 16 -1 16 C-1.33 13.36 -1.66 10.72 -2 8 C-2.99 9.32 -3.98 10.64 -5 12 C-5 8.40142046 -4.04169485 6.90548882 -2 4 C-1.34 4 -0.68 4 0 4 C0 2.68 0 1.36 0 0 Z " fill="#4A8FB3" transform="translate(847,527)"/>
<path d="M0 0 C0.7734375 0.61875 0.7734375 0.61875 1.5625 1.25 C-1.45240557 3.25993705 -3.6524927 3.97623341 -7.125 4.875 C-8.11886719 5.13539063 -9.11273438 5.39578125 -10.13671875 5.6640625 C-10.89597656 5.85742188 -11.65523438 6.05078125 -12.4375 6.25 C-9.22527528 2.86203047 -4.88820512 -1.50406311 0 0 Z " fill="#0484B8" transform="translate(360.4375,715.75)"/>
<path d="M0 0 C1.40253926 4.20761779 -0.09397469 6.11735584 -2 10 C-2.66 10.66 -3.32 11.32 -4 12 C-4.50423019 6.70558305 -3.18923033 4.18586481 0 0 Z " fill="#0C7BB3" transform="translate(840,541)"/>
<path d="M0 0 C0.66 0.66 1.32 1.32 2 2 C0.9024777 4.99324263 0.32317108 5.84610901 -2.625 7.25 C-3.40875 7.4975 -4.1925 7.745 -5 8 C-3.35 5.36 -1.7 2.72 0 0 Z " fill="#1891C0" transform="translate(835,548)"/>
</svg>
